<svg id="Blocks" xmlns="http://www.w3.org/2000/svg" viewBox="0 0 500 500"><defs><style>.cls-1,.cls-2{fill:#e6e6e6;}.cls-1{stroke:#e6e6e6;stroke-miterlimit:10;stroke-width:10px;}</style></defs><title>Visual elements Block 2</title><path class="cls-1" d="M103.13,118.45h49.42v16.46h-33V349.09h33v16.46H103.13Z"/><path class="cls-1" d="M390.59,370.55H341.18V354.09h32.95V139.91H341.18V123.45h49.41Z"/><polygon class="cls-2" points="307.98 268.99 187.14 268.99 248.4 171.95 307.98 268.99"/><path class="cls-2" d="M247.68,172a67.41,67.41,0,0,1,67.4,67.4V172Z"/><path class="cls-2" d="M247.68,172h-67.4v67.4A67.41,67.41,0,0,1,247.68,172Z"/><path class="cls-2" d="M180.28,239.35v67.4h67.4A67.41,67.41,0,0,1,180.28,239.35Z"/><path class="cls-2" d="M247.68,306.75h67.4v-67.4A67.41,67.41,0,0,1,247.68,306.75Z"/></svg>