<svg id="Blocks" xmlns="http://www.w3.org/2000/svg" viewBox="0 0 500 500"><defs><style>.cls-1,.cls-2{fill:#757575;}.cls-1{stroke:#757575;stroke-miterlimit:10;stroke-width:10px;}</style></defs><title>Visual elements Block</title><path class="cls-1" d="M102.32,118.45h49.42v16.46H118.79V349.09h33v16.46H102.32Z"/><path class="cls-1" d="M389.78,370.55H340.37V354.09h32.95V139.91H340.37V123.45h49.41Z"/><polygon class="cls-2" points="307.17 268.99 186.33 268.99 247.59 171.95 307.17 268.99"/><path class="cls-2" d="M246.87,172a67.41,67.41,0,0,1,67.4,67.4V172Z"/><path class="cls-2" d="M246.87,172h-67.4v67.4A67.41,67.41,0,0,1,246.87,172Z"/><path class="cls-2" d="M179.47,239.35v67.4h67.4A67.41,67.41,0,0,1,179.47,239.35Z"/><path class="cls-2" d="M246.87,306.75h67.4v-67.4A67.41,67.41,0,0,1,246.87,306.75Z"/></svg>