<svg id="Blocks" xmlns="http://www.w3.org/2000/svg" viewBox="0 0 500 500"><defs><style>.cls-1,.cls-2{fill:#757575;}.cls-1{stroke:#757575;stroke-miterlimit:10;stroke-width:15.8px;}</style></defs><title>Portfolio block</title><path class="cls-1" d="M96.79,114.38h52.06v17.35H114.13V357.4h34.72v17.34H96.79Z"/><path class="cls-1" d="M399.67,380H347.6V362.66h34.72V137H347.6V119.65h52.07Z"/><path class="cls-2" d="M299.61,221.2h-19.3V202.82a7.28,7.28,0,0,0-7.27-7.27H217.16a7.28,7.28,0,0,0-7.27,7.27V221.2h-19.3a10.91,10.91,0,0,0-10.9,10.9v70a10.9,10.9,0,0,0,10.9,10.9h109a10.9,10.9,0,0,0,10.9-10.9v-70A10.91,10.91,0,0,0,299.61,221.2Zm-75.18-11.11h41.34v11.12H224.43Z"/></svg>