<svg id="Blocks" xmlns="http://www.w3.org/2000/svg" viewBox="0 0 500 500"><defs><style>.cls-1,.cls-2{fill:#e6e6e6;}.cls-1{stroke:#e6e6e6;stroke-miterlimit:10;stroke-width:15.8px;}</style></defs><title>Portfolio block 2</title><path class="cls-1" d="M97.65,114.38h52.06v17.35H115V357.4h34.72v17.34H97.65Z"/><path class="cls-1" d="M400.53,380H348.46V362.66h34.72V137H348.46V119.65h52.07Z"/><path class="cls-2" d="M300.47,221.2h-19.3V202.82a7.28,7.28,0,0,0-7.27-7.27H218a7.28,7.28,0,0,0-7.27,7.27V221.2h-19.3a10.91,10.91,0,0,0-10.9,10.9v70a10.9,10.9,0,0,0,10.9,10.9h109a10.9,10.9,0,0,0,10.9-10.9v-70A10.91,10.91,0,0,0,300.47,221.2Zm-75.18-11.11h41.34v11.12H225.29Z"/></svg>